<svg xmlns="http://www.w3.org/2000/svg" fill="none" viewBox="0 0 530 550" height="550" width="530">
<path fill="#AEB4BC" d="M374.738 132.141H143.246C132.543 132.141 123.866 140.817 123.866 151.521V348.935C125.293 348.85 126.731 348.807 128.179 348.807C166.315 348.807 197.461 378.732 199.418 416.38H388.726C399.43 416.38 408.106 407.704 408.106 397V160.391C391.804 159.293 378.405 147.6 374.738 132.141ZM391.893 132.398C397.63 133.341 402.518 136.803 405.385 141.611L403.245 143.751L391.893 132.398ZM170.617 377.684C180.658 387.72 187.161 401.296 188.094 416.38H188.093C187.161 401.297 180.658 387.72 170.617 377.684ZM350.937 227.065C350.937 203.606 331.92 184.589 308.461 184.589C285.002 184.589 265.984 203.606 265.984 227.065C265.984 250.524 285.002 269.542 308.461 269.542C331.92 269.542 350.937 250.524 350.937 227.065ZM289.582 227.065L308.461 245.944L327.339 227.065L308.461 208.187L289.582 227.065ZM237.666 208.186C237.666 197.76 229.214 189.308 218.788 189.307C208.361 189.307 199.909 197.759 199.909 208.185C199.909 218.611 208.361 227.064 218.788 227.064C229.214 227.064 237.666 218.612 237.666 208.186ZM181.031 255.382C181.031 244.955 189.483 236.503 199.91 236.503H237.667C248.093 236.503 256.545 244.955 256.545 255.382V264.821H181.031V255.382ZM181.031 321.456C181.031 297.997 200.049 278.98 223.508 278.98C246.967 278.98 265.984 297.997 265.984 321.456C265.984 344.916 246.967 363.933 223.508 363.933C200.049 363.933 181.031 344.916 181.031 321.456ZM204.629 321.456L223.508 302.578L242.386 321.456L223.508 340.335L204.629 321.456ZM294.304 302.58C294.304 292.154 302.756 283.701 313.182 283.701C323.609 283.701 332.061 292.153 332.061 302.579C332.061 313.005 323.609 321.458 313.182 321.458C302.756 321.458 294.304 313.006 294.304 302.58ZM350.939 349.775C350.939 339.349 342.487 330.896 332.06 330.896H294.303C283.877 330.896 275.425 339.349 275.425 349.775V359.214H350.939V349.775Z" clip-rule="evenodd" fill-rule="evenodd" opacity="0.5"></path>
<path fill="#76808F" d="M128.178 480.172C161.332 480.172 188.209 453.296 188.209 420.142C188.209 386.988 161.332 360.111 128.178 360.111C95.0241 360.111 68.1475 386.988 68.1475 420.142C68.1475 453.296 95.0241 480.172 128.178 480.172ZM131.048 386.495L125.085 386.52L116.281 405.604L96.3845 408.706L94.5312 414.296L109.06 429.284L105.521 450.339L110.368 453.789L128.072 443.888L145.776 453.789L150.628 450.369L147.283 429.297L161.825 414.296L159.972 408.706L140.058 405.601L131.048 386.495Z" clip-rule="evenodd" fill-rule="evenodd"></path>
<path fill="#F0B90B" d="M349.158 62.1392H472.079V185.06H410.618L376.474 216.928V185.06H349.158V62.1392ZM410.618 160.475C430.984 160.475 447.494 143.965 447.494 123.598C447.494 103.232 430.984 86.7223 410.618 86.7223C390.252 86.7223 373.742 103.232 373.742 123.598C373.742 143.965 390.252 160.475 410.618 160.475ZM403.243 129.264L427.279 105.228L434.522 112.472L403.243 143.75L384.871 125.378L392.114 118.135L403.243 129.264Z" clip-rule="evenodd" fill-rule="evenodd"></path>
<path fill="#F0B90B" d="M116.38 105.036L121.63 104.267L119.125 87.1663L113.875 87.9353L116.38 105.036Z"></path>
<path fill="#F0B90B" d="M96.6828 119.688L99.8516 115.431L85.9886 105.111L82.8199 109.367L96.6828 119.688Z"></path>
<path fill="#F0B90B" d="M75.8562 146.444L92.9565 143.939L92.1875 138.689L75.0871 141.193L75.8562 146.444Z"></path>
<path fill="#F0B90B" d="M146.148 111.926L156.469 98.063L152.212 94.8943L141.892 108.757L146.148 111.926Z"></path>
<path fill="#F0B90B" d="M97.2746 177.574L107.595 163.711L103.339 160.543L93.0183 174.406L97.2746 177.574Z"></path>
<path fill="#CACED3" d="M408.105 444.432L418.476 444.432L418.476 437.8L408.105 437.8L408.105 444.432Z"></path>
<path fill="#CACED3" d="M436.728 444.433L447.1 444.433L447.1 437.802L436.728 437.802L436.728 444.433Z"></path>
<path fill="#CACED3" d="M424.286 461.851L430.918 461.851L430.918 451.479L424.286 451.479L424.286 461.851Z"></path>
<path fill="#CACED3" d="M424.286 433.212L430.917 433.212L430.917 422.841L424.286 422.841L424.286 433.212Z"></path>
</svg>
